<svg xmlns="http://www.w3.org/2000/svg" width="364.07895pt" height="75pt" viewBox="0 0 364.07894 75"><path fill="#e51d39" d="M.015 62.455V5.615C-.188 2.153 1.674.28 5.602.002h12.576c2.559 0 4.078 1.744 4.544 5.244v37.082c0 2.74.177 4.618.524 5.614.348 1 1.456.133 3.313-2.628L71.625.002h27.25c3.228.155 3.581 1.771 1.044 4.864l-26.244 29.83-15.943 16.858-9.734 11.228c-8.113 8.145-16.077 12.217-23.88 12.217h-9.782C4.789 75 .015 70.814.015 62.455" style="stroke-width:5.35164"/><path fill="#f38520" d="m76.68 41.143 3.275 3.238 25.982 25.742c2.531 3.103 2.183 4.72-1.05 4.875H77.644L66.377 63.674l-5.635-5.668z" style="stroke-width:5.35164"/><path fill="#e51d39" d="M140.514.002c3.029 1.242 4.773 3.612 5.239 7.107v61.153c-.466 3.746-2.21 5.989-5.24 6.738h-17.467c-2.382-.872-4.126-3.125-5.24-6.738V6.36c1.253-3.366 3.12-5.486 5.593-6.358zM191.518 17.976c-4.426 0-6.636 2.382-6.636 7.123v24.805c0 4.618 1.745 6.86 5.24 6.743h60.43c2.799 0 4.19 1.365 4.19 4.115v9.65c0 3.055-1.514 4.586-4.543 4.586h-79.29c-8.215-.867-12.865-5.368-13.979-13.492V13.112C158.188 5.25 163.31.872 172.306 0h78.6c2.557 0 3.836 1.375 3.836 4.12v8.992c0 3.248-1.279 4.864-3.837 4.864H200.6zM300.85 17.976c-4.421 0-6.631 2.382-6.631 7.123v24.805c0 4.618 1.739 6.86 5.239 6.743h60.43c2.805 0 4.19 1.365 4.19 4.115v9.65c0 3.055-1.514 4.586-4.548 4.586H280.246c-8.215-.867-12.871-5.368-13.979-13.492V13.112C267.52 5.25 272.641.872 281.637 0h78.594c2.569 0 3.848 1.375 3.848 4.12v8.992c0 3.248-1.28 4.864-3.848 4.864h-50.3z" style="stroke-width:5.35164"/></svg>