<?xml version="1.0" encoding="utf-8"?>
<!-- Generator: Adobe Illustrator 26.5.0, SVG Export Plug-In . SVG Version: 6.00 Build 0)  -->
<svg version="1.1" id="레이어_1" xmlns="http://www.w3.org/2000/svg" xmlns:xlink="http://www.w3.org/1999/xlink" x="0px"
	 y="0px" viewBox="0 0 274.7 58.6" style="enable-background:new 0 0 274.7 58.6;" xml:space="preserve">
<style type="text/css">
	.st0{clip-path:url(#SVGID_00000013168037786720276540000010776678993927948426_);fill:#C4181F;}
	.st1{clip-path:url(#SVGID_00000013168037786720276540000010776678993927948426_);fill:#040000;}
	.st2{clip-path:url(#SVGID_00000013168037786720276540000010776678993927948426_);}
</style>
<g>
	<defs>
		<rect id="SVGID_1_" y="0" width="274.7" height="58.6"/>
	</defs>
	<clipPath id="SVGID_00000150825508627930471840000014119143064779225523_">
		<use xlink:href="#SVGID_1_"  style="overflow:visible;"/>
	</clipPath>
	<path style="clip-path:url(#SVGID_00000150825508627930471840000014119143064779225523_);fill:#C4181F;" d="M57,55.3
		c-0.9,0-1.7-0.1-2.5-0.3c-0.7-0.2-1.4-0.4-2-0.7v-2.9h0.3c0.6,0.5,1.3,0.9,2,1.2c0.7,0.3,1.5,0.4,2.1,0.4c0.2,0,0.4,0,0.7-0.1
		c0.3,0,0.5-0.1,0.7-0.2c0.2-0.1,0.4-0.2,0.5-0.4c0.1-0.2,0.2-0.4,0.2-0.7c0-0.3-0.1-0.6-0.4-0.7c-0.2-0.2-0.5-0.3-0.9-0.4
		c-0.4-0.1-0.8-0.2-1.3-0.3c-0.5-0.1-0.9-0.2-1.3-0.4c-0.9-0.3-1.6-0.8-2-1.3c-0.4-0.6-0.6-1.3-0.6-2.1c0-1.1,0.5-2.1,1.4-2.8
		c1-0.7,2.2-1.1,3.6-1.1c0.7,0,1.4,0.1,2.2,0.2c0.7,0.1,1.3,0.3,1.9,0.6v2.8h-0.3c-0.4-0.4-1-0.7-1.6-1c-0.7-0.3-1.3-0.4-2-0.4
		c-0.3,0-0.5,0-0.7,0.1c-0.2,0-0.4,0.1-0.7,0.2c-0.2,0.1-0.4,0.2-0.5,0.4c-0.1,0.2-0.2,0.4-0.2,0.6c0,0.3,0.1,0.6,0.3,0.7
		c0.2,0.2,0.6,0.3,1.3,0.5c0.4,0.1,0.8,0.2,1.2,0.3c0.4,0.1,0.8,0.2,1.2,0.4c0.8,0.3,1.5,0.7,1.9,1.2c0.4,0.5,0.6,1.2,0.6,2
		c0,1.2-0.5,2.2-1.4,2.9C59.9,55,58.6,55.3,57,55.3"/>
	<path style="clip-path:url(#SVGID_00000150825508627930471840000014119143064779225523_);fill:#C4181F;" d="M65.9,49.4
		c0-0.6,0.2-1,0.5-1.4c0.3-0.3,0.7-0.5,1.3-0.5c0.5,0,1,0.2,1.2,0.5c0.3,0.3,0.4,0.8,0.4,1.4H65.9z M69.6,55.3
		c0.3-0.1,0.7-0.1,1-0.2c0.3-0.1,0.6-0.2,0.8-0.2c0.2-0.1,0.4-0.2,0.6-0.3v-2.4h-0.3c-0.1,0.1-0.3,0.2-0.5,0.3
		c-0.2,0.1-0.4,0.2-0.7,0.3c-0.3,0.1-0.6,0.2-0.9,0.3c-0.3,0.1-0.7,0.1-1,0.1c-0.4,0-0.8,0-1.1-0.1c-0.3-0.1-0.6-0.2-0.9-0.4
		c-0.3-0.2-0.5-0.4-0.6-0.7c-0.2-0.3-0.2-0.6-0.3-1.1h6.3v-1c0-1.4-0.4-2.5-1.1-3.2c-0.7-0.8-1.8-1.1-3.2-1.1
		c-1.6,0-2.8,0.4-3.6,1.3c-0.9,0.9-1.3,2.1-1.3,3.6c0,1.5,0.5,2.7,1.4,3.5c0.9,0.8,2.3,1.2,4,1.2C68.9,55.4,69.3,55.3,69.6,55.3"/>
	<path style="clip-path:url(#SVGID_00000150825508627930471840000014119143064779225523_);fill:#C4181F;" d="M75.8,49.4
		c0-0.6,0.2-1,0.5-1.4c0.3-0.3,0.8-0.5,1.3-0.5c0.5,0,1,0.2,1.2,0.5c0.3,0.3,0.4,0.8,0.4,1.4H75.8z M79.5,55.3
		c0.3-0.1,0.7-0.1,1-0.2c0.3-0.1,0.6-0.2,0.8-0.2c0.2-0.1,0.4-0.2,0.6-0.3v-2.4h-0.3c-0.1,0.1-0.3,0.2-0.5,0.3
		c-0.2,0.1-0.4,0.2-0.7,0.3c-0.3,0.1-0.6,0.2-0.9,0.3c-0.3,0.1-0.6,0.1-1,0.1c-0.4,0-0.7,0-1.1-0.1c-0.3-0.1-0.6-0.2-0.9-0.4
		c-0.2-0.2-0.4-0.4-0.6-0.7c-0.2-0.3-0.2-0.6-0.3-1.1h6.3v-1c0-1.4-0.4-2.5-1.1-3.2c-0.7-0.8-1.8-1.1-3.2-1.1
		c-1.6,0-2.8,0.4-3.6,1.3c-0.9,0.9-1.3,2.1-1.3,3.6c0,1.5,0.5,2.7,1.4,3.5c0.9,0.8,2.3,1.2,4,1.2C78.8,55.4,79.2,55.3,79.5,55.3"/>
	<path style="clip-path:url(#SVGID_00000150825508627930471840000014119143064779225523_);fill:#C4181F;" d="M88.3,52.6
		c-0.2,0.1-0.5,0.1-0.8,0.1c-0.3,0-0.6-0.1-0.9-0.2c-0.2-0.1-0.4-0.3-0.5-0.5c-0.1-0.2-0.2-0.5-0.3-0.7c-0.1-0.3-0.1-0.6-0.1-1
		c0-0.8,0.2-1.4,0.5-1.9c0.3-0.4,0.9-0.7,1.6-0.7c0.2,0,0.4,0,0.6,0.1c0.2,0,0.4,0.1,0.5,0.2v4.2C88.8,52.4,88.6,52.5,88.3,52.6
		 M91.9,45.9h-2.8L89,46.3c-0.3-0.2-0.6-0.4-1-0.5c-0.4-0.1-0.8-0.2-1.3-0.2c-0.5,0-1,0.1-1.5,0.3c-0.5,0.2-0.9,0.5-1.2,0.9
		c-0.4,0.4-0.6,0.9-0.8,1.5c-0.2,0.6-0.3,1.2-0.3,1.9c0,1.6,0.3,2.8,1,3.5c0.7,0.8,1.6,1.2,2.8,1.2c0.4,0,0.9-0.1,1.3-0.3
		c0.4-0.2,0.8-0.4,1.1-0.7v0.2c0,0.4,0,0.7-0.1,1c-0.1,0.3-0.2,0.5-0.3,0.7c-0.2,0.2-0.4,0.3-0.7,0.4c-0.3,0.1-0.7,0.1-1.2,0.1
		c-0.2,0-0.5,0-0.7-0.1c-0.2,0-0.5-0.1-0.7-0.1c-0.2-0.1-0.4-0.1-0.6-0.2c-0.2-0.1-0.4-0.1-0.5-0.2h-0.3v2.3
		c0.4,0.1,0.9,0.2,1.4,0.3c0.5,0.1,1.1,0.1,1.7,0.1c0.7,0,1.4-0.1,2-0.2c0.6-0.2,1.1-0.4,1.5-0.7c0.4-0.3,0.8-0.8,1-1.4
		c0.2-0.6,0.4-1.3,0.4-2.2V45.9z"/>
	<path style="clip-path:url(#SVGID_00000150825508627930471840000014119143064779225523_);fill:#C4181F;" d="M95.5,49.4
		c0-0.6,0.2-1,0.5-1.4c0.3-0.3,0.8-0.5,1.3-0.5c0.5,0,1,0.2,1.2,0.5c0.3,0.3,0.4,0.8,0.4,1.4H95.5z M99.2,55.3
		c0.3-0.1,0.7-0.1,1-0.2c0.3-0.1,0.6-0.2,0.8-0.2c0.2-0.1,0.4-0.2,0.6-0.3v-2.4h-0.3c-0.1,0.1-0.3,0.2-0.5,0.3
		c-0.2,0.1-0.4,0.2-0.7,0.3c-0.3,0.1-0.6,0.2-0.9,0.3c-0.3,0.1-0.7,0.1-1,0.1c-0.4,0-0.7,0-1.1-0.1c-0.3-0.1-0.6-0.2-0.9-0.4
		c-0.2-0.2-0.5-0.4-0.6-0.7c-0.1-0.3-0.2-0.6-0.3-1.1h6.3v-1c0-1.4-0.4-2.5-1.1-3.2c-0.7-0.8-1.8-1.1-3.2-1.1
		c-1.6,0-2.8,0.4-3.6,1.3c-0.9,0.9-1.3,2.1-1.3,3.6c0,1.5,0.5,2.7,1.4,3.5c0.9,0.8,2.3,1.2,4,1.2C98.5,55.4,98.9,55.3,99.2,55.3"/>
	<path style="clip-path:url(#SVGID_00000150825508627930471840000014119143064779225523_);fill:#C4181F;" d="M111.6,55.1h-2.9v-4.6
		c0-0.4,0-0.7,0-1.1c0-0.4-0.1-0.6-0.2-0.8c-0.1-0.2-0.2-0.3-0.4-0.4c-0.2-0.1-0.4-0.1-0.7-0.1c-0.2,0-0.5,0-0.7,0.1
		c-0.2,0.1-0.5,0.2-0.8,0.4v6.5H103v-9.2h2.9v1c0.5-0.4,0.9-0.7,1.4-0.9c0.4-0.2,0.9-0.3,1.5-0.3c0.9,0,1.7,0.3,2.2,0.9
		c0.5,0.6,0.7,1.5,0.7,2.6V55.1z"/>
	<path style="clip-path:url(#SVGID_00000150825508627930471840000014119143064779225523_);fill:#C4181F;" d="M115.1,49.4
		c0-0.6,0.2-1,0.5-1.4c0.3-0.3,0.8-0.5,1.3-0.5c0.5,0,1,0.2,1.2,0.5c0.3,0.3,0.4,0.8,0.4,1.4H115.1z M118.9,55.3
		c0.3-0.1,0.7-0.1,1-0.2c0.3-0.1,0.6-0.2,0.8-0.2c0.2-0.1,0.4-0.2,0.6-0.3v-2.4h-0.3c-0.1,0.1-0.3,0.2-0.5,0.3
		c-0.2,0.1-0.4,0.2-0.7,0.3c-0.3,0.1-0.6,0.2-0.9,0.3c-0.3,0.1-0.7,0.1-1,0.1c-0.4,0-0.7,0-1.1-0.1c-0.3-0.1-0.6-0.2-0.9-0.4
		c-0.2-0.2-0.5-0.4-0.6-0.7c-0.2-0.3-0.2-0.6-0.3-1.1h6.3v-1c0-1.4-0.4-2.5-1.1-3.2c-0.7-0.8-1.8-1.1-3.2-1.1
		c-1.6,0-2.8,0.4-3.6,1.3c-0.9,0.9-1.3,2.1-1.3,3.6c0,1.5,0.5,2.7,1.4,3.5c0.9,0.8,2.3,1.2,4,1.2C118.1,55.4,118.5,55.3,118.9,55.3"
		/>
	<path style="clip-path:url(#SVGID_00000150825508627930471840000014119143064779225523_);fill:#C4181F;" d="M136.7,50.8
		c-0.1-1.5-0.1-3.3-0.1-5.1h0c-0.4,1.6-0.9,3.3-1.4,4.8l-1.5,4.8h-2.2l-1.3-4.8c-0.4-1.5-0.8-3.2-1.1-4.8h0
		c-0.1,1.7-0.1,3.6-0.2,5.1l-0.2,4.7H126l0.8-12.3h3.7l1.2,4.1c0.4,1.4,0.8,3,1,4.4h0.1c0.3-1.4,0.7-3.1,1.2-4.4l1.3-4.1h3.7
		l0.7,12.3h-2.7L136.7,50.8z"/>
	<path style="clip-path:url(#SVGID_00000150825508627930471840000014119143064779225523_);fill:#C4181F;" d="M143,52
		c0.1,1.2,1.2,1.7,2.5,1.7c0.9,0,1.7-0.1,2.5-0.4l0.4,1.9c-0.9,0.4-2,0.6-3.2,0.6c-3,0-4.8-1.8-4.8-4.6c0-2.3,1.4-4.8,4.5-4.8
		c2.9,0,4,2.3,4,4.5c0,0.5-0.1,0.9-0.1,1.1H143z M146.2,50.1c0-0.7-0.3-1.8-1.6-1.8c-1.2,0-1.6,1.1-1.7,1.8H146.2z"/>
	<path style="clip-path:url(#SVGID_00000150825508627930471840000014119143064779225523_);fill:#C4181F;" d="M158.2,42.6v10.3
		c0,1,0,2.1,0.1,2.7h-2.5l-0.1-1.3h-0.1c-0.5,1-1.7,1.5-2.8,1.5c-2.1,0-3.8-1.8-3.8-4.6c0-3,1.9-4.8,4-4.8c1.1,0,2,0.4,2.4,1h0v-4.8
		H158.2z M155.5,50.4c0-0.1,0-0.3,0-0.5c-0.2-0.7-0.8-1.4-1.6-1.4c-1.3,0-1.9,1.1-1.9,2.5c0,1.5,0.8,2.5,1.9,2.5
		c0.8,0,1.5-0.5,1.6-1.3c0-0.2,0.1-0.4,0.1-0.6V50.4z"/>
	<path style="clip-path:url(#SVGID_00000150825508627930471840000014119143064779225523_);fill:#C4181F;" d="M162.4,44.1
		c0,0.8-0.6,1.4-1.5,1.4c-0.9,0-1.4-0.6-1.4-1.4c0-0.8,0.6-1.4,1.5-1.4C161.9,42.7,162.4,43.3,162.4,44.1 M159.6,46.6h2.8v9h-2.8
		V46.6z"/>
	<path style="clip-path:url(#SVGID_00000150825508627930471840000014119143064779225523_);fill:#C4181F;" d="M170.4,55.3
		c-0.5,0.2-1.4,0.4-2.5,0.4c-2.9,0-4.7-1.8-4.7-4.6c0-2.6,1.8-4.8,5.1-4.8c0.7,0,1.5,0.1,2.1,0.3l-0.4,2.1c-0.3-0.1-0.8-0.3-1.6-0.3
		c-1.5,0-2.4,1-2.4,2.5c0,1.6,1.1,2.5,2.5,2.5c0.7,0,1.2-0.1,1.6-0.3L170.4,55.3z"/>
	<path style="clip-path:url(#SVGID_00000150825508627930471840000014119143064779225523_);fill:#C4181F;" d="M178.5,53.4
		c0,0.8,0,1.7,0.1,2.2h-2.5l-0.2-0.9H176c-0.6,0.7-1.5,1.1-2.6,1.1c-1.8,0-2.9-1.3-2.9-2.8c0-2.3,2.1-3.4,5.3-3.4v-0.1
		c0-0.5-0.3-1.2-1.6-1.2c-0.9,0-1.9,0.3-2.5,0.7l-0.5-1.8c0.6-0.3,1.9-0.8,3.5-0.8c3,0,3.9,1.8,3.9,3.9V53.4z M175.8,51.3
		c-1.5,0-2.6,0.3-2.6,1.4c0,0.7,0.5,1.1,1.1,1.1c0.7,0,1.3-0.5,1.4-1c0-0.1,0.1-0.3,0.1-0.5V51.3z"/>
	
		<rect x="179.8" y="42.6" style="clip-path:url(#SVGID_00000150825508627930471840000014119143064779225523_);fill:#C4181F;" width="2.8" height="13"/>
	<polygon style="clip-path:url(#SVGID_00000150825508627930471840000014119143064779225523_);fill:#C4181F;" points="186.9,43.2 
		194.4,43.2 194.4,45.5 189.6,45.5 189.6,48.3 194.1,48.3 194.1,50.6 189.6,50.6 189.6,55.6 186.9,55.6 	"/>
	<path style="clip-path:url(#SVGID_00000150825508627930471840000014119143064779225523_);fill:#C4181F;" d="M203.9,51
		c0,3.3-2.3,4.8-4.7,4.8c-2.6,0-4.6-1.7-4.6-4.6c0-2.9,1.9-4.8,4.8-4.8C202,46.4,203.9,48.3,203.9,51 M197.4,51.1
		c0,1.5,0.6,2.7,1.8,2.7c1.1,0,1.8-1.1,1.8-2.7c0-1.3-0.5-2.7-1.8-2.7C197.9,48.4,197.4,49.8,197.4,51.1"/>
	<path style="clip-path:url(#SVGID_00000150825508627930471840000014119143064779225523_);fill:#C4181F;" d="M213.1,52.7
		c0,1.2,0,2.1,0.1,2.9h-2.4l-0.1-1.3h-0.1c-0.4,0.5-1.2,1.5-2.8,1.5c-1.8,0-3.2-1.1-3.2-3.9v-5.3h2.8v4.8c0,1.3,0.4,2.1,1.4,2.1
		c0.8,0,1.2-0.5,1.4-1c0.1-0.2,0.1-0.4,0.1-0.6v-5.3h2.8V52.7z"/>
	<path style="clip-path:url(#SVGID_00000150825508627930471840000014119143064779225523_);fill:#C4181F;" d="M214.4,49.5
		c0-1.1,0-2.1-0.1-2.9h2.4l0.1,1.2h0.1c0.4-0.6,1.3-1.4,2.8-1.4c1.8,0,3.2,1.2,3.2,3.9v5.3h-2.8v-5c0-1.2-0.4-1.9-1.4-1.9
		c-0.8,0-1.2,0.5-1.4,1c-0.1,0.2-0.1,0.4-0.1,0.7v5.2h-2.8V49.5z"/>
	<path style="clip-path:url(#SVGID_00000150825508627930471840000014119143064779225523_);fill:#C4181F;" d="M232.9,42.6v10.3
		c0,1,0,2.1,0.1,2.7h-2.5l-0.1-1.3h-0.1c-0.5,1-1.6,1.5-2.8,1.5c-2.1,0-3.8-1.8-3.8-4.6c0-3,1.9-4.8,4-4.8c1.1,0,2,0.4,2.4,1h0v-4.8
		H232.9z M230.1,50.4c0-0.1,0-0.3,0-0.5c-0.2-0.7-0.8-1.4-1.6-1.4c-1.3,0-1.9,1.1-1.9,2.5c0,1.5,0.7,2.5,1.9,2.5
		c0.8,0,1.5-0.5,1.6-1.3c0-0.2,0.1-0.4,0.1-0.6V50.4z"/>
	<path style="clip-path:url(#SVGID_00000150825508627930471840000014119143064779225523_);fill:#C4181F;" d="M241.7,53.4
		c0,0.8,0,1.7,0.1,2.2h-2.5l-0.2-0.9h-0.1c-0.6,0.7-1.5,1.1-2.6,1.1c-1.8,0-2.9-1.3-2.9-2.8c0-2.3,2.1-3.4,5.3-3.4v-0.1
		c0-0.5-0.3-1.2-1.6-1.2c-0.9,0-1.9,0.3-2.5,0.7l-0.5-1.8c0.6-0.3,1.9-0.8,3.5-0.8c3,0,3.9,1.8,3.9,3.9V53.4z M239,51.3
		c-1.5,0-2.6,0.3-2.6,1.4c0,0.7,0.5,1.1,1.1,1.1c0.7,0,1.3-0.5,1.4-1c0-0.1,0.1-0.3,0.1-0.5V51.3z"/>
	<path style="clip-path:url(#SVGID_00000150825508627930471840000014119143064779225523_);fill:#C4181F;" d="M246,44.2v2.4h2v2.1h-2
		v3.2c0,1.1,0.3,1.6,1.1,1.6c0.4,0,0.6,0,0.8-0.1l0,2.1c-0.3,0.1-1,0.2-1.8,0.2c-0.9,0-1.6-0.3-2.1-0.8c-0.5-0.5-0.8-1.4-0.8-2.7
		v-3.7H242v-2.1h1.2v-1.7L246,44.2z"/>
	<path style="clip-path:url(#SVGID_00000150825508627930471840000014119143064779225523_);fill:#C4181F;" d="M251.5,44.1
		c0,0.8-0.6,1.4-1.5,1.4c-0.9,0-1.4-0.6-1.4-1.4c0-0.8,0.6-1.4,1.5-1.4C251,42.7,251.5,43.3,251.5,44.1 M248.7,46.6h2.8v9h-2.8V46.6
		z"/>
	<path style="clip-path:url(#SVGID_00000150825508627930471840000014119143064779225523_);fill:#C4181F;" d="M261.6,51
		c0,3.3-2.3,4.8-4.7,4.8c-2.6,0-4.6-1.7-4.6-4.6c0-2.9,1.9-4.8,4.8-4.8C259.8,46.4,261.6,48.3,261.6,51 M255.1,51.1
		c0,1.5,0.6,2.7,1.8,2.7c1.1,0,1.8-1.1,1.8-2.7c0-1.3-0.5-2.7-1.8-2.7C255.6,48.4,255.1,49.8,255.1,51.1"/>
	<path style="clip-path:url(#SVGID_00000150825508627930471840000014119143064779225523_);fill:#C4181F;" d="M262.4,49.5
		c0-1.1,0-2.1-0.1-2.9h2.4l0.1,1.2h0.1c0.4-0.6,1.3-1.4,2.8-1.4c1.8,0,3.2,1.2,3.2,3.9v5.3h-2.8v-5c0-1.2-0.4-1.9-1.4-1.9
		c-0.8,0-1.2,0.5-1.4,1c-0.1,0.2-0.1,0.4-0.1,0.7v5.2h-2.8V49.5z"/>
	<path style="clip-path:url(#SVGID_00000150825508627930471840000014119143064779225523_);fill:#C4181F;" d="M33.7,15.2
		c-0.4-0.5-0.9-0.8-1.6-0.8c-0.8,0-1.5,0.4-2.2,1.2c-3.2,3.9-5.6,4.7-7,4.7c-1,0-1.7-0.4-1.9-0.6l-0.3-0.3c-0.2-0.2-0.7-0.9-0.6-2
		c0-1.4,0.9-3.7,4.7-6.9c0.8-0.7,1.2-1.5,1.2-2.2c0-0.6-0.3-1.2-0.8-1.5c-0.4-0.3-0.8-0.4-1.3-0.4c-0.9,0-1.8,0.5-2.6,1.4
		c-3.7,3.7-4.7,7.3-3.1,10.5c-0.9-0.5-1.9-0.7-3-0.7c-2.4,0-5,1.3-7.5,3.8c-2,2-1.3,3.4-0.9,3.9c0.3,0.5,0.9,0.8,1.6,0.8
		c0.8,0,1.5-0.4,2.1-1.1c3.2-3.9,5.6-4.7,7-4.7c1,0,1.7,0.4,1.9,0.6l0.3,0.3c0.2,0.2,0.7,0.9,0.6,2c0,1.4-0.9,3.7-4.7,6.9
		c-1,0.8-1.2,1.6-1.2,2.1c0,0.6,0.3,1.2,0.8,1.6c0.4,0.3,0.9,0.5,1.3,0.5c0.8,0,1.7-0.5,2.6-1.4c3.6-3.7,4.7-7.3,3.1-10.5
		c1,0.5,1.9,0.7,3,0.7h0c2.4,0,5-1.3,7.5-3.8C34.3,17.7,34.6,16.4,33.7,15.2"/>
	<path style="clip-path:url(#SVGID_00000150825508627930471840000014119143064779225523_);fill:#040000;" d="M20.2,0
		C9.1,0,0,9.1,0,20.2c0,11.2,9.1,20.2,20.2,20.2s20.2-9.1,20.2-20.2C40.5,9.1,31.4,0,20.2,0 M20.2,37.1c-9.3,0-16.9-7.6-16.9-16.9
		c0-9.3,7.6-16.9,16.9-16.9c9.3,0,16.9,7.6,16.9,16.9C37.1,29.6,29.6,37.1,20.2,37.1"/>
	<path style="clip-path:url(#SVGID_00000150825508627930471840000014119143064779225523_);fill:#040000;" d="M129.3,22.4
		c-0.4-0.2-0.8-0.5-1.3-0.9c-0.5-0.4-1-0.8-1.4-1.2c-0.5-0.4-0.9-0.9-1.4-1.4c-0.4-0.5-0.8-0.9-1.1-1.4c-0.9,1.2-2,2.3-3.1,3.3
		c-1.1,1.1-2.3,1.9-3.6,2.7l-2.1-2.6c1.2-0.8,2.4-1.7,3.4-2.7c1-1,1.9-2,2.7-3.1c0.8-1.1,1.5-2.1,2.1-3.2c0.6-1.1,1-2.1,1.3-3
		c0.1-0.3,0.1-0.5,0.1-0.6c-0.1-0.1-0.3-0.1-0.5-0.1h-7.6l0-3.2h9.5c1.9,0,2.9,0.6,2.9,1.9c0,0.2,0,0.4-0.1,0.7s-0.1,0.5-0.2,0.7
		c-0.2,1-0.5,2-1,3c-0.5,1.1-1.1,2.1-1.8,3.2c0.3,0.5,0.7,0.9,1.1,1.4c0.4,0.5,0.9,1,1.4,1.4c0.5,0.5,1,0.9,1.4,1.2
		c0.5,0.4,0.9,0.7,1.4,0.9L129.3,22.4z M144.3,35.4h-19.4c-1,0-1.7-0.2-2.1-0.6c-0.4-0.4-0.5-1-0.5-1.9v-7.2h4v5.8
		c0,0.2,0,0.4,0.1,0.4c0.1,0.1,0.3,0.1,0.5,0.1h17.4V35.4z M133.8,26.3V15.9h-4v-3.3h4V5.1h3.8v21.1H133.8z M140,5.2h3.9v21.1H140
		V5.2z"/>
	<path style="clip-path:url(#SVGID_00000150825508627930471840000014119143064779225523_);fill:#040000;" d="M148.2,25.6
		c1.8,0,3.8,0,5.8,0c2,0,4.1-0.1,6.1-0.2c2-0.1,4-0.2,5.9-0.4c1.9-0.1,3.6-0.3,5.2-0.5c0.1,0,0.3,0,0.4,0c0.2,0,0.3,0.1,0.3,0.3
		l0.2,2.3c0,0.2,0,0.3-0.1,0.4c-0.1,0.1-0.2,0.2-0.4,0.2c-1.4,0.2-3.1,0.4-5.1,0.5c-1.9,0.2-4,0.3-6.1,0.4c-2.1,0.1-4.2,0.2-6.4,0.3
		C152,29,150,29,148.2,29V25.6z M158.1,5.1c1.2,0,2.3,0.2,3.3,0.6c1,0.4,1.9,0.9,2.7,1.6c0.8,0.7,1.4,1.6,1.8,2.6
		c0.4,1,0.7,2.1,0.7,3.3c0,1.2-0.2,2.3-0.7,3.3c-0.4,1-1,1.8-1.8,2.5c-0.8,0.7-1.7,1.2-2.7,1.6c-1,0.4-2.1,0.6-3.3,0.6
		c-1.2,0-2.3-0.2-3.3-0.6c-1-0.4-1.9-0.9-2.7-1.6c-0.8-0.7-1.3-1.5-1.8-2.5c-0.4-1-0.7-2.1-0.7-3.3c0-1.2,0.2-2.3,0.7-3.3
		c0.4-1,1-1.8,1.8-2.6c0.8-0.7,1.6-1.2,2.7-1.6C155.8,5.3,156.9,5.1,158.1,5.1 M158.1,8.4c-1.3,0-2.4,0.4-3.3,1.3
		c-0.9,0.9-1.3,2-1.3,3.5c0,1.5,0.4,2.6,1.3,3.5c0.9,0.9,1.9,1.3,3.3,1.3c1.4,0,2.5-0.4,3.3-1.3c0.9-0.9,1.3-2,1.3-3.5
		c0-1.5-0.4-2.6-1.3-3.5C160.6,8.9,159.4,8.4,158.1,8.4 M171.1,5.2h4v30.3h-4V5.2z"/>
	<path style="clip-path:url(#SVGID_00000150825508627930471840000014119143064779225523_);fill:#040000;" d="M182.8,5.1h19.7
		c1,0,1.6,0.2,2,0.5c0.3,0.3,0.5,0.9,0.5,1.8V13c0,0.9-0.2,1.5-0.5,1.8c-0.3,0.3-1,0.5-2,0.5h-15.2c-0.2,0-0.4,0-0.4,0.1
		c0,0-0.1,0.2-0.1,0.4v2.7c0,0.3,0,0.4,0.1,0.5c0.1,0.1,0.2,0.1,0.4,0.1h18.6v3.2h-5.2v4.9h8.3v3.3h-30.2v-3.3h8.3v-4.9h-1.7
		c-0.5,0-0.9,0-1.2-0.1c-0.3-0.1-0.6-0.2-0.8-0.4c-0.2-0.2-0.3-0.4-0.4-0.7c-0.1-0.3-0.1-0.7-0.1-1.1v-5.5c0-0.5,0-0.8,0.1-1.1
		c0.1-0.3,0.2-0.5,0.4-0.7c0.2-0.2,0.4-0.3,0.8-0.3c0.3-0.1,0.7-0.1,1.2-0.1h15.2c0.2,0,0.4,0,0.4-0.1c0.1-0.1,0.1-0.2,0.1-0.5V8.9
		c0-0.3,0-0.4-0.1-0.4c-0.1,0-0.2-0.1-0.4-0.1h-17.8V5.1z M196.8,22.2H191v4.9h5.8V22.2z"/>
	<path style="clip-path:url(#SVGID_00000150825508627930471840000014119143064779225523_);fill:#040000;" d="M225.7,25.4
		c-0.3-0.3-0.7-0.6-1.2-1c-0.4-0.4-0.9-0.9-1.3-1.4c-0.5-0.5-0.9-1.1-1.4-1.7c-0.4-0.6-0.8-1.2-1.2-1.8c-2,2.8-4.5,5.3-7.4,7.5
		l-2.3-2.7c1.4-1,2.7-2.1,3.8-3.3c1.2-1.2,2.2-2.5,3.1-3.8c0.9-1.3,1.6-2.7,2.2-4c0.6-1.3,1-2.6,1.2-3.8c0-0.3,0-0.6,0-0.7
		c0-0.1-0.2-0.2-0.5-0.2h-8.2l0-3.3h10.1c1,0,1.7,0.2,2.2,0.5c0.4,0.3,0.6,0.8,0.6,1.4c0,0.2,0,0.4,0,0.7c0,0.3,0,0.5-0.1,0.7
		c-0.3,1.3-0.6,2.7-1.1,3.9c-0.5,1.3-1,2.6-1.7,3.8c0.3,0.6,0.8,1.2,1.2,1.9c0.5,0.6,0.9,1.3,1.5,1.9c0.5,0.6,1,1.1,1.5,1.6
		c0.5,0.5,0.9,0.9,1.3,1.1L225.7,25.4z M236.4,35.4V19h-2.9v16.4h-3.8V5.2h3.8v10.5h2.9V5.2h3.9v30.3H236.4z"/>
	<path style="clip-path:url(#SVGID_00000150825508627930471840000014119143064779225523_);fill:#040000;" d="M260.7,8.5h-9.9
		c-0.4,0-0.6,0.2-0.6,0.6v8c0,0.4,0.1,0.6,0.2,0.7c0.1,0.1,0.4,0.2,0.8,0.2c0.7,0,1.6,0.1,2.6,0c1,0,2-0.1,3.1-0.2
		c1.1-0.1,2.2-0.2,3.2-0.3c1.1-0.1,2.1-0.3,3-0.5c0.4-0.1,0.6,0.1,0.7,0.4l0.4,1.9c0,0.3,0,0.4-0.1,0.5c-0.1,0.1-0.2,0.1-0.4,0.2
		c-0.9,0.3-1.9,0.5-3.2,0.6c-1.2,0.2-2.6,0.3-4,0.4c-1.4,0.1-2.8,0.2-4.2,0.2c-1.4,0-2.6,0-3.8,0c-0.8,0-1.4-0.2-1.8-0.6
		c-0.4-0.3-0.7-0.9-0.7-1.7V7.3c0-0.8,0.2-1.4,0.5-1.7c0.3-0.3,0.9-0.5,1.8-0.5h12.2V8.5z M253.8,25.6v6c0,0.2,0,0.4,0.1,0.5
		c0.1,0.1,0.3,0.1,0.5,0.1h16.4v3.3h-18.3c-1,0-1.7-0.2-2.1-0.6c-0.4-0.4-0.5-1-0.5-1.9v-7.4H253.8z M266,26V5.2h4v8.6h4.7v3.3H270
		v9H266z"/>
	<path style="clip-path:url(#SVGID_00000150825508627930471840000014119143064779225523_);" d="M103.9,22.1
		c-0.6-0.7-1.1-1.4-1.6-2.3c-0.5-0.8-1-1.7-1.4-2.5c-0.4-0.9-0.7-1.7-0.8-2.5c0.3-1.4,0.5-2.9,0.6-4.4c0.1-1.5,0.2-3.6,0.2-5.3h-3.7
		c0,5.6-0.9,11.7-2.5,15.1c-0.5,1.1-1,2.2-1.7,3.5c-0.3,0.6-0.7,1.1-1,1.6c-0.4,0.5-0.7,1-1.2,1.5l2.8,2.2c2-2.4,3.7-5.3,5-8.8
		c0.3,0.6,0.6,1.2,0.9,1.8c0.4,0.6,0.8,1.2,1.2,1.7c0.4,0.6,0.8,1.1,1.2,1.5c0.4,0.5,0.8,0.8,1.1,1.1l2.3-2.6
		C105,23.4,104.5,22.8,103.9,22.1"/>
	
		<rect x="107.7" y="5.2" style="clip-path:url(#SVGID_00000150825508627930471840000014119143064779225523_);" width="3.8" height="30.4"/>
	<path style="clip-path:url(#SVGID_00000150825508627930471840000014119143064779225523_);" d="M90.8,11.4c-0.2,1.7-0.5,3.2-0.9,4.7
		c-0.4,1.4-1,2.8-1.7,4.1c-0.7,1.3-1.6,2.6-2.7,3.9l2.8,2.2c0.9-1,1.7-2.1,2.4-3.2c0.7-1.1,1.5-2.7,1.8-3.4c0.4-0.9,1.2-3.4,1.5-5.1
		c0.3-1.3,0.4-2.7,0.6-4.1c0.1-1.5,0.2-3.6,0.2-5.4H91C91,7.3,91,9.7,90.8,11.4"/>
	<path style="clip-path:url(#SVGID_00000150825508627930471840000014119143064779225523_);fill:#040000;" d="M56.3,12.2
		c-0.4,0.5-0.9,1-1.3,1.5c-0.5,0.5-1.1,1-2.3,1.9L51.3,14c1.2-0.9,1.7-1.4,2.2-1.9c0.5-0.5,0.9-1.1,1.3-1.6c0.4-0.6,0.7-1.1,1-1.7
		c0.3-0.6,0.5-1.1,0.6-1.6c0-0.1,0-0.2,0-0.2c0-0.1-0.1-0.1-0.3-0.1H52l0-1.8h5.6c0.5,0,0.9,0.1,1,0.2c0.2,0.2,0.3,0.4,0.3,0.8
		c0,0.1,0,0.2,0,0.4c0,0.1,0,0.3-0.1,0.4c-0.1,0.5-0.3,1.1-0.5,1.6c-0.2,0.5-0.5,1.1-0.8,1.7c0.1,0.3,0.3,0.5,0.5,0.8
		c0.2,0.3,0.4,0.5,0.6,0.8c0.2,0.2,0.4,0.5,0.7,0.7c0.2,0.2,0.5,0.4,1,0.8l-1.5,1.7c-0.5-0.4-0.7-0.6-0.9-0.8
		c-0.2-0.2-0.4-0.4-0.6-0.6c-0.2-0.2-0.4-0.4-0.6-0.7 M64.1,18.9v-7.6h-1.3v7.6h-2.2V5.1h2.2v4.4h1.3V5.1h2.3v13.8H64.1z"/>
	<path style="clip-path:url(#SVGID_00000150825508627930471840000014119143064779225523_);fill:#040000;" d="M77.6,12.1
		c-0.5,0.1-1,0.2-1.6,0.3c-0.6,0.1-1.4,0.1-2.1,0.2c-0.7,0.1-1.3,0.1-1.9,0.1c-0.6,0-1.2,0-1.7,0c-0.4,0-0.7-0.1-0.9-0.2
		C69.1,12.3,69,12,69,11.6V6.1c0-0.2,0-0.4,0.1-0.5c0-0.1,0.1-0.2,0.2-0.3c0.1-0.1,0.2-0.1,0.4-0.1c0.1,0,0.3,0,0.6,0h6v1.8h-4.6
		c-0.1,0-0.2,0-0.2,0.1c0,0,0,0.1,0,0.2v3.6c0,0.2,0.1,0.3,0.3,0.3c0.8,0,1.7,0,2.6-0.1c0.9-0.1,2-0.2,3-0.3L77.6,12.1z M81.7,18.9
		h-9.3c-0.5,0-0.8-0.1-0.9-0.2c-0.2-0.2-0.2-0.5-0.2-0.9v-3.4h2.3v2.5c0,0.2,0.1,0.2,0.3,0.2h7.9V18.9z M83.9,10.4h-2.1v4h-2.3V5.1
		h2.3v3.5h2.1V10.4z"/>
	<path style="clip-path:url(#SVGID_00000150825508627930471840000014119143064779225523_);fill:#040000;" d="M64,28.3v-2.6h-2.4v1.5
		c0,0.4-0.1,0.7-0.3,0.8c-0.2,0.2-0.5,0.2-1,0.2h-6.2c-0.3,0-0.5,0-0.7,0c-0.2,0-0.3-0.1-0.4-0.2c-0.1-0.1-0.2-0.2-0.2-0.3
		c0-0.1,0-0.3,0-0.6v-5.8h2.3v1.8h4.1v-1.8h2.3V24H64v-2.6h2.3v7L64,28.3z M59.2,24.8h-4.1v1.5c0,0.1,0.1,0.2,0.3,0.2H59
		c0.2,0,0.3-0.1,0.3-0.2V24.8z M66.3,29.7v4.7c0,0.4-0.1,0.7-0.2,0.8c-0.2,0.2-0.5,0.2-1,0.2h-8.1c-0.3,0-0.5,0-0.7,0
		c-0.2,0-0.3-0.1-0.4-0.2c-0.1-0.1-0.2-0.2-0.2-0.3c0-0.1-0.1-0.3-0.1-0.6v-4.6h2.3v1.1H64v-1.2H66.3z M64,32.7h-6.1v1
		c0,0.1,0.1,0.1,0.2,0.1h5.7c0.1,0,0.2,0,0.2-0.1V32.7z"/>
	<path style="clip-path:url(#SVGID_00000150825508627930471840000014119143064779225523_);fill:#040000;" d="M81.9,35.6h-9.5
		c-0.2,0-0.4,0-0.6-0.1c-0.2,0-0.3-0.1-0.4-0.2c-0.1-0.1-0.2-0.2-0.2-0.4c0-0.1-0.1-0.3-0.1-0.5v-3.5h2.3v2.7c0,0.2,0.1,0.2,0.3,0.2
		h8.1V35.6z M81.7,21.3v9.8l-2.3,0v-9.8H81.7z"/>
	<path style="clip-path:url(#SVGID_00000150825508627930471840000014119143064779225523_);fill:#040000;" d="M73,29.2
		c-2.3,0-4.2-1.8-4.2-4c0-2.2,1.9-4,4.2-4c2.3,0,4.2,1.8,4.2,4C77.3,27.5,75.4,29.2,73,29.2 M73,23.3c-1.2,0-2.2,0.9-2.2,2
		c0,1.1,1,2,2.2,2c1.2,0,2.2-0.9,2.2-2C75.2,24.2,74.2,23.3,73,23.3"/>
</g>
</svg>
